<?xml version="1.0" encoding="UTF-8" standalone="no"?><!DOCTYPE svg PUBLIC "-//W3C//DTD SVG 1.1//EN" "http://www.w3.org/Graphics/SVG/1.1/DTD/svg11.dtd"><svg width="240px" height="84px" viewBox="0 0 240 84" version="1.1" xmlns="http://www.w3.org/2000/svg" xmlns:xlink="http://www.w3.org/1999/xlink" xml:space="preserve" style="fill-rule:evenodd;clip-rule:evenodd;stroke-linejoin:round;stroke-miterlimit:1.41421;"><g><path d="M47.419,83.364l-47.419,-46.329l28.888,-2.725l10.356,-30.523l8.175,79.577Z" style="fill:#0076bd;fill-rule:nonzero;"/><path d="M47.419,83.364l37.064,-55.05l-16.896,-1.09l-22.348,-27.253l2.18,83.393Z" style="fill:#a61f67;fill-rule:nonzero;"/><path d="M62.681,34.855l-19.622,11.991l-19.622,-2.726l23.982,39.244l15.262,-48.509Z" style="fill:#81be41;fill-rule:nonzero;"/><path d="M66.837,13.597c0,2.823 2.288,5.11 5.11,5.11c2.823,0 5.11,-2.287 5.11,-5.11c0,-2.822 -2.287,-5.109 -5.11,-5.109c-2.822,0 -5.11,2.287 -5.11,5.109Z" style="fill:#a61f67;fill-rule:nonzero;"/><path d="M35.769,34.037c0,2.371 1.922,4.292 4.292,4.292c2.371,0 4.293,-1.921 4.293,-4.292c0,-2.37 -1.922,-4.292 -4.293,-4.292c-2.37,0 -4.292,1.922 -4.292,4.292Z" style="fill:#81be41;fill-rule:nonzero;"/><path d="M17.986,22.864c0,2.709 2.197,4.905 4.906,4.905c2.709,0 4.906,-2.196 4.906,-4.905c0,-2.71 -2.197,-4.906 -4.906,-4.906c-2.709,0 -4.906,2.196 -4.906,4.906Z" style="fill:#0076bd;fill-rule:nonzero;"/><path d="M97.183,65.596c6.506,0 11.815,-5.384 11.815,-11.964c0,-6.581 -5.309,-11.964 -11.815,-11.964c-6.505,0 -11.815,5.383 -11.815,11.964c0,6.58 5.31,11.964 11.815,11.964Zm-16.077,-12.039c0,-8.898 7.179,-16.152 16.002,-16.152c4.637,0 8.899,2.019 11.815,5.235l0,-4.711l4.188,0l0,31.182l-4.188,0l0,-4.712c-2.916,3.29 -7.104,5.309 -11.815,5.309c-8.823,0 -16.002,-7.253 -16.002,-16.151Z" style="fill:#81be41;fill-rule:nonzero;"/><rect x="120.934" y="17.331" width="3.95" height="51.779" style="fill:#81be41;fill-rule:nonzero;"/><rect x="132.51" y="17.331" width="3.95" height="51.779" style="fill:#81be41;fill-rule:nonzero;"/><path d="M164.279,36.957l10.319,23.853l9.946,-22.881l4.112,0l-14.058,32.303l-10.319,-23.629l-10.319,23.629l-14.058,-32.303l4.113,0l9.945,22.881l10.319,-23.853Z" style="fill:#0076bd;fill-rule:nonzero;"/><path d="M202.863,41.668c-7.552,0 -11.291,5.907 -11.515,9.721l22.956,0c-0.449,-4.113 -4.262,-9.721 -11.441,-9.721Zm10.17,18.095l3.738,2.244c-2.243,3.963 -6.953,7.701 -13.908,7.701c-9.272,0 -16.002,-6.804 -16.002,-16.151c0,-9.422 6.73,-16.152 16.002,-16.152c10.468,0 16.003,8.151 16.003,15.927c0,1.422 -0.15,2.095 -0.749,2.095l-26.844,0c0.747,5.308 4.86,10.019 11.59,10.019c5.01,0 8.225,-2.692 10.17,-5.683Z" style="fill:#0076bd;fill-rule:nonzero;"/><rect x="221.604" y="17.331" width="3.951" height="51.779" style="fill:#0076bd;fill-rule:nonzero;"/><rect x="233.595" y="17.331" width="3.951" height="51.779" style="fill:#0076bd;fill-rule:nonzero;"/><path d="M85.129,79.917l1.033,0c0.578,0 1.379,-0.098 1.379,-0.926c0,-0.659 -0.427,-0.89 -1.335,-0.89l-1.077,0l0,1.816Zm0,-2.777l1.024,0c0.748,0 1.121,-0.321 1.121,-0.793c0,-0.543 -0.373,-0.81 -1.219,-0.81l-0.926,0l0,1.603Zm-1.121,-2.563l2.456,0c0.953,0 1.932,0.435 1.932,1.585c0,0.711 -0.445,1.182 -1.095,1.378l0,0.018c0.792,0.09 1.362,0.712 1.362,1.522c0,1.371 -1.193,1.798 -2.386,1.798l-2.269,0l0,-6.301Z" style="fill:#a61f67;fill-rule:nonzero;"/><path d="M90.577,74.577l4.175,0l0,1.014l-3.054,0l0,1.549l2.893,0l0,1.014l-2.893,0l0,1.71l3.214,0l0,1.014l-4.335,0l0,-6.301Z" style="fill:#a61f67;fill-rule:nonzero;"/><path d="M96.817,74.577l1.121,0l0,2.509l2.947,0l0,-2.509l1.121,0l0,6.301l-1.121,0l0,-2.777l-2.947,0l0,2.777l-1.121,0l0,-6.301Z" style="fill:#a61f67;fill-rule:nonzero;"/><path d="M107.676,78.475l-0.97,-2.564l-0.988,2.564l1.958,0Zm-1.424,-3.898l0.971,0l2.715,6.301l-1.283,0l-0.587,-1.442l-2.733,0l-0.569,1.442l-1.255,0l2.741,-6.301Z" style="fill:#a61f67;fill-rule:nonzero;"/><path d="M110.162,74.577l1.291,0l1.718,4.761l1.771,-4.761l1.211,0l-2.546,6.301l-0.971,0l-2.474,-6.301Z" style="fill:#a61f67;fill-rule:nonzero;"/><rect x="117.604" y="74.577" width="1.122" height="6.302" style="fill:#a61f67;fill-rule:nonzero;"/><path d="M123.906,80.023c1.308,0 2.171,-0.996 2.171,-2.34c0,-1.255 -0.863,-2.252 -2.171,-2.252c-1.3,0 -2.163,0.997 -2.163,2.252c0,1.344 0.863,2.34 2.163,2.34Zm-0.01,-5.607c1.968,-0.035 3.356,1.282 3.356,3.302c0,1.967 -1.388,3.285 -3.356,3.32c-1.94,0 -3.328,-1.317 -3.328,-3.284c0,-2.021 1.388,-3.338 3.328,-3.338Z" style="fill:#a61f67;fill-rule:nonzero;"/><path d="M131.116,77.246c0.632,0 1.371,-0.052 1.371,-0.872c0,-0.748 -0.694,-0.837 -1.273,-0.837l-0.97,0l0,1.709l0.872,0Zm-1.994,-2.669l2.19,0c1.21,0 2.35,0.391 2.35,1.807c0,0.907 -0.525,1.575 -1.46,1.708l1.673,2.786l-1.353,0l-1.459,-2.67l-0.819,0l0,2.67l-1.122,0l0,-6.301Z" style="fill:#a61f67;fill-rule:nonzero;"/><path d="M138.993,78.475l-0.969,-2.564l-0.989,2.564l1.958,0Zm-1.423,-3.898l0.97,0l2.714,6.301l-1.282,0l-0.587,-1.442l-2.732,0l-0.57,1.442l-1.255,0l2.742,-6.301Z" style="fill:#a61f67;fill-rule:nonzero;"/><path d="M142.759,74.577l1.121,0l0,5.287l2.679,0l0,1.014l-3.8,0l0,-6.301Z" style="fill:#a61f67;fill-rule:nonzero;"/><path d="M151.616,74.577l1.121,0l0,2.509l2.947,0l0,-2.509l1.121,0l0,6.301l-1.121,0l0,-2.777l-2.947,0l0,2.777l-1.121,0l0,-6.301Z" style="fill:#a61f67;fill-rule:nonzero;"/><path d="M159.013,74.577l4.174,0l0,1.014l-3.053,0l0,1.549l2.893,0l0,1.014l-2.893,0l0,1.71l3.214,0l0,1.014l-4.335,0l0,-6.301Z" style="fill:#a61f67;fill-rule:nonzero;"/><path d="M168.715,78.475l-0.97,-2.564l-0.988,2.564l1.958,0Zm-1.424,-3.898l0.97,0l2.715,6.301l-1.282,0l-0.587,-1.442l-2.732,0l-0.57,1.442l-1.256,0l2.742,-6.301Z" style="fill:#a61f67;fill-rule:nonzero;"/><path d="M172.481,74.577l1.121,0l0,5.287l2.68,0l0,1.014l-3.801,0l0,-6.301Z" style="fill:#a61f67;fill-rule:nonzero;"/><path d="M178.375,75.591l-1.931,0l0,-1.014l4.984,0l0,1.014l-1.931,0l0,5.287l-1.122,0l0,-5.287Z" style="fill:#a61f67;fill-rule:nonzero;"/><path d="M182.995,74.577l1.122,0l0,2.509l2.946,0l0,-2.509l1.122,0l0,6.301l-1.122,0l0,-2.777l-2.946,0l0,2.777l-1.122,0l0,-6.301Z" style="fill:#a61f67;fill-rule:nonzero;"/><path d="M196.916,75.929c-0.239,-0.338 -0.667,-0.498 -1.103,-0.498c-0.516,0 -1.032,0.231 -1.032,0.81c0,1.264 2.991,0.543 2.991,2.786c0,1.353 -1.069,2.011 -2.306,2.011c-0.783,0 -1.549,-0.24 -2.065,-0.854l0.846,-0.819c0.275,0.418 0.747,0.658 1.246,0.658c0.516,0 1.103,-0.284 1.103,-0.863c0,-1.379 -2.99,-0.587 -2.99,-2.839c0,-1.299 1.156,-1.905 2.322,-1.905c0.66,0 1.318,0.187 1.807,0.65l-0.819,0.863Z" style="fill:#a61f67;fill-rule:nonzero;"/><path d="M199.739,74.577l4.174,0l0,1.014l-3.053,0l0,1.549l2.893,0l0,1.014l-2.893,0l0,1.71l3.214,0l0,1.014l-4.335,0l0,-6.301Z" style="fill:#a61f67;fill-rule:nonzero;"/><path d="M207.972,77.246c0.633,0 1.371,-0.052 1.371,-0.872c0,-0.748 -0.694,-0.837 -1.273,-0.837l-0.97,0l0,1.709l0.872,0Zm-1.993,-2.669l2.189,0c1.21,0 2.35,0.391 2.35,1.807c0,0.907 -0.525,1.575 -1.46,1.708l1.674,2.786l-1.354,0l-1.459,-2.67l-0.819,0l0,2.67l-1.121,0l0,-6.301Z" style="fill:#a61f67;fill-rule:nonzero;"/><path d="M211.657,74.577l1.291,0l1.719,4.761l1.77,-4.761l1.211,0l-2.546,6.301l-0.97,0l-2.475,-6.301Z" style="fill:#a61f67;fill-rule:nonzero;"/><rect x="219.099" y="74.577" width="1.122" height="6.302" style="fill:#a61f67;fill-rule:nonzero;"/><path d="M226.727,76.054c-0.462,-0.49 -0.89,-0.623 -1.326,-0.623c-1.299,0 -2.163,0.997 -2.163,2.252c0,1.344 0.864,2.34 2.163,2.34c0.508,0 0.997,-0.231 1.416,-0.765l0.925,0.659c-0.569,0.783 -1.424,1.121 -2.35,1.121c-1.94,0 -3.329,-1.317 -3.329,-3.284c0,-2.021 1.389,-3.338 3.329,-3.338c0.855,0 1.585,0.276 2.208,0.997l-0.873,0.641Z" style="fill:#a61f67;fill-rule:nonzero;"/><path d="M229.301,74.577l4.174,0l0,1.014l-3.053,0l0,1.549l2.893,0l0,1.014l-2.893,0l0,1.71l3.213,0l0,1.014l-4.334,0l0,-6.301Z" style="fill:#a61f67;fill-rule:nonzero;"/><path d="M238.628,75.929c-0.24,-0.338 -0.667,-0.498 -1.103,-0.498c-0.516,0 -1.033,0.231 -1.033,0.81c0,1.264 2.991,0.543 2.991,2.786c0,1.353 -1.068,2.011 -2.305,2.011c-0.783,0 -1.549,-0.24 -2.065,-0.854l0.845,-0.819c0.276,0.418 0.748,0.658 1.247,0.658c0.516,0 1.103,-0.284 1.103,-0.863c0,-1.379 -2.991,-0.587 -2.991,-2.839c0,-1.299 1.158,-1.905 2.323,-1.905c0.659,0 1.318,0.187 1.807,0.65l-0.819,0.863Z" style="fill:#a61f67;fill-rule:nonzero;"/></g></svg>